<svg xmlns="http://www.w3.org/2000/svg" xmlns:xlink="http://www.w3.org/1999/xlink" viewBox="0,0,256,256" width="26px" height="26px" fill-rule="nonzero"><g fill="#8c4646" fill-rule="nonzero" stroke="none" stroke-width="1" stroke-linecap="butt" stroke-linejoin="miter" stroke-miterlimit="10" stroke-dasharray="" stroke-dashoffset="0" font-family="none" font-weight="none" font-size="none" text-anchor="none" style="mix-blend-mode: normal"><g transform="scale(9.84615,9.84615)"><path d="M9.86719,10.86328c0.05859,0.45313 0.08594,0.92578 0.08594,1.41016c0,0.52344 -0.03516,1.03125 -0.10156,1.50781c-0.06641,0.47266 -0.1875,0.89453 -0.35937,1.25391c-0.16406,0.35156 -0.39453,0.63672 -0.6875,0.84766c-0.28516,0.20703 -0.66016,0.3125 -1.10938,0.3125c-0.03125,0 -0.08203,-0.00391 -0.16016,-0.00781l-0.51172,-0.03125c-0.01953,0 -0.03906,-0.00391 -0.05078,-0.00391v-7.50391c0.07422,-0.00781 0.17188,-0.01562 0.28516,-0.01953c0.17578,-0.00781 0.34766,-0.00781 0.51953,-0.00781c0.45312,0 0.82422,0.09766 1.10547,0.28906c0.28125,0.19141 0.50391,0.45703 0.66016,0.78125c0.15625,0.33203 0.26953,0.73047 0.32422,1.17188zM26,4.875v16.25c0,2.69141 -2.18359,4.875 -4.875,4.875h-16.25c-2.69141,0 -4.875,-2.18359 -4.875,-4.875v-16.25c0,-2.69141 2.18359,-4.875 4.875,-4.875h16.25c2.69141,0 4.875,2.18359 4.875,4.875zM12.31641,12.30469c0,-0.85937 -0.07812,-1.64844 -0.22656,-2.34766c-0.15234,-0.70703 -0.41406,-1.32031 -0.78125,-1.82812c-0.36719,-0.51563 -0.86328,-0.91406 -1.47266,-1.19531c-0.60937,-0.27734 -1.37109,-0.41797 -2.26953,-0.41797c-0.18359,0 -0.39062,0.00391 -0.625,0.00781c-0.23828,0.00391 -0.48047,0.01563 -0.73437,0.03125l-0.73437,0.04688c-0.25391,0.01953 -0.46875,0.04297 -0.66016,0.07422c-0.0625,0.01172 -0.10547,0.0625 -0.10547,0.125v11.21484c0,0.0625 0.04297,0.11328 0.10547,0.125c0.12891,0.01953 0.30859,0.03906 0.55469,0.05859l0.73438,0.04688c0.25781,0.01563 0.50391,0.02734 0.73828,0.03906c0.23828,0.01172 0.42578,0.01563 0.56641,0.01563c0.95313,0 1.75781,-0.16406 2.39453,-0.49219c0.63281,-0.32812 1.14453,-0.77734 1.51953,-1.32812c0.37109,-0.55078 0.63281,-1.19922 0.77734,-1.91797c0.14453,-0.71484 0.21875,-1.47656 0.21875,-2.25781zM22.44141,10.02734c0.00781,-0.03516 0,-0.07422 -0.02344,-0.10547c-0.02344,-0.02734 -0.0625,-0.04687 -0.09766,-0.04687h-1.73047c-0.05859,0 -0.10937,0.04297 -0.12109,0.10156l-0.75391,4.08984l-0.07812,0.64453l-0.09375,-0.64844l-1.12109,-4.09375c-0.01562,-0.05469 -0.0625,-0.09375 -0.12109,-0.09375h-1.42187c-0.05859,0 -0.10937,0.03906 -0.12109,0.09766l-0.98047,4.01172l-0.09766,0.69141l-0.07031,-0.6875l-0.86328,-4.01562c-0.01562,-0.05859 -0.0625,-0.09766 -0.125,-0.09766h-2.0625c-0.03906,0 -0.07422,0.01563 -0.09766,0.04688c-0.02344,0.03125 -0.03125,0.07031 -0.02344,0.10547l2.05078,8.08203c0.01172,0.05469 0.0625,0.09375 0.12109,0.09375h1.55078c0.05859,0 0.10547,-0.03906 0.12109,-0.09375l1.15625,-4.44922l0.04297,-0.39844l0.04688,0.38672l1.19922,4.46484c0.01563,0.05469 0.0625,0.08984 0.12109,0.08984h1.50391c0.05859,0 0.10938,-0.03906 0.12109,-0.09375z"></path></g></g></svg>