<svg xmlns="http://www.w3.org/2000/svg" xmlns:xlink="http://www.w3.org/1999/xlink" viewBox="0,0,256,256" width="26px" height="26px" fill-rule="nonzero"><g fill="#8c4646" fill-rule="nonzero" stroke="none" stroke-width="1" stroke-linecap="butt" stroke-linejoin="miter" stroke-miterlimit="10" stroke-dasharray="" stroke-dashoffset="0" font-family="none" font-weight="none" font-size="none" text-anchor="none" style="mix-blend-mode: normal"><g transform="scale(9.84615,9.84615)"><path d="M4.875,0c-2.69141,0 -4.875,2.18359 -4.875,4.875v16.25c0,2.69141 2.18359,4.875 4.875,4.875h16.25c2.69141,0 4.875,-2.18359 4.875,-4.875v-16.25c0,-2.69141 -2.18359,-4.875 -4.875,-4.875zM17,6.5c0.40234,0 0.72266,0.12109 0.96875,0.34375c0.25,0.22656 0.375,0.53906 0.375,0.90625c0,0.36719 -0.12109,0.66016 -0.375,0.875c-0.24609,0.21094 -0.57031,0.3125 -0.96875,0.3125c-0.40625,0 -0.71484,-0.12109 -0.9375,-0.34375c-0.22656,-0.21875 -0.34375,-0.49219 -0.34375,-0.84375c0,-0.35156 0.11719,-0.64453 0.34375,-0.875c0.22266,-0.23047 0.53125,-0.375 0.9375,-0.375zM10.40625,6.59375h1.5625c0.05469,0 0.10938,0.03906 0.125,0.09375l3.25,11.25c0.01563,0.01953 0.03125,0.03906 0.03125,0.0625c0,0.07031 -0.05859,0.125 -0.125,0.125h-2.125c-0.05859,0 -0.10937,-0.03906 -0.125,-0.09375l-0.65625,-2.46875h-2.4375l-0.65625,2.46875c-0.01562,0.05469 -0.03516,0.09375 -0.09375,0.09375h-2c-0.03906,0 -0.10156,-0.03125 -0.125,-0.0625c-0.02344,-0.03125 -0.01172,-0.05859 0,-0.09375l3.25,-11.28125c0.01563,-0.05469 0.07031,-0.09375 0.125,-0.09375zM16.0625,9.875h1.90625c0.07031,0 0.125,0.05469 0.125,0.125v8c0,0.07031 -0.05469,0.125 -0.125,0.125h-1.90625c-0.07031,0 -0.125,-0.05469 -0.125,-0.125v-8c0,-0.07031 0.05469,-0.125 0.125,-0.125zM11.15625,10.0625l-0.1875,1.15625l-0.5625,2.46875h1.53125l-0.625,-2.46875z"></path></g></g></svg>