<svg xmlns="http://www.w3.org/2000/svg" xmlns:xlink="http://www.w3.org/1999/xlink" viewBox="0,0,256,256" width="26px" height="26px" fill-rule="nonzero"><g fill="#8c4646" fill-rule="nonzero" stroke="none" stroke-width="1" stroke-linecap="butt" stroke-linejoin="miter" stroke-miterlimit="10" stroke-dasharray="" stroke-dashoffset="0" font-family="none" font-weight="none" font-size="none" text-anchor="none" style="mix-blend-mode: normal"><g transform="scale(9.84615,9.84615)"><path d="M15.47266,11.75c0.10156,0.03125 0.19141,0.08203 0.27344,0.14844v3.69922c-0.07812,0.24219 -0.19141,0.42969 -0.33984,0.55469c-0.14453,0.125 -0.35156,0.1875 -0.60547,0.1875c-0.32422,0 -0.55859,-0.16797 -0.71094,-0.51172c-0.16797,-0.37109 -0.25391,-0.92187 -0.25391,-1.63672c0,-0.95312 0.10547,-1.625 0.30469,-1.98828c0.19141,-0.34375 0.46875,-0.51172 0.85156,-0.51172c0.19531,0 0.35938,0.02344 0.48047,0.05859zM26,4.875v16.25c0,2.69141 -2.18359,4.875 -4.875,4.875h-16.25c-2.69141,0 -4.875,-2.18359 -4.875,-4.875v-16.25c0,-2.69141 2.18359,-4.875 4.875,-4.875h16.25c2.69141,0 4.875,2.18359 4.875,4.875zM10.57422,6.80078c0,-0.07031 -0.05859,-0.125 -0.125,-0.125h-2.01562c-0.07031,0 -0.125,0.05469 -0.125,0.125v11.19922c0,0.07031 0.05469,0.125 0.125,0.125h2.01563c0.06641,0 0.125,-0.05469 0.125,-0.125zM18.05078,18.01563c0,-0.01953 -0.00391,-0.03906 -0.01172,-0.05469c-0.07031,-0.52344 -0.11328,-1.00781 -0.125,-1.4375c-0.00781,-0.44531 -0.01562,-0.89453 -0.01562,-1.33984v-8.38281c0,-0.07031 -0.05469,-0.125 -0.125,-0.125h-1.90234c-0.06641,0 -0.125,0.05469 -0.125,0.125v3.04297c-0.11328,-0.03906 -0.23047,-0.07031 -0.34766,-0.09375c-0.17969,-0.03516 -0.39453,-0.05078 -0.66406,-0.05078c-1.03125,0 -1.82031,0.38672 -2.34375,1.14844c-0.51172,0.75 -0.77344,1.85156 -0.77344,3.28125c0,1.46094 0.24219,2.53125 0.72266,3.19141c0.48438,0.67188 1.16406,1.01172 2.01172,1.01172c0.87109,0 1.51172,-0.33203 1.90625,-0.99219l0.19531,0.70703c0.01563,0.05469 0.06641,0.09375 0.12109,0.09375h1.34375c0.00391,0 0.00391,0 0.00781,0c0.06641,0 0.125,-0.05469 0.125,-0.125z"></path></g></g></svg>